# xmcd
#
# Track frame offsets:
#	150
#	12495
#	28662
#	41410
#	54405
#	68550
#	80477
#	93457
#	106352
#
# Disc length: 1590 seconds
#
# Revision: 1
# Processed by: cddbd v1.5.1PL2 Copyright (c) Steve Scherf et al.
# Submitted via: audiograbber 1.83.01
#
DISCID=6a063409
DTITLE=Lauralea - Lauralea
DYEAR=1900
DGENRE=Country
TTITLE0=Ready to make believe
TTITLE1=I can't believe what you're saying to me
TTITLE2=Foolin' around
TTITLE3=There is nothing between us
TTITLE4=Many more miles
TTITLE5=Let love lead the way
TTITLE6=I hardly noticed you were gone
TTITLE7=Your love
TTITLE8=Since I met you baby
EXTD=
EXTT0=
EXTT1=
EXTT2=
EXTT3=
EXTT4=
EXTT5=
EXTT6=
EXTT7=
EXTT8=
PLAYORDER=
